<svg xmlns="http://www.w3.org/2000/svg" width="200" height="272" viewBox="0 0 200 272" class="fig fig-leg" role="img" aria-label="Pierna y pie derechos, vista anterior"><style>
  :root{--sil:#E1E8F0;--linea:#1F2F4A;--fondo:#FFFFFF;--tenue:#5E6E86;--tinta:#15233C;--zona:#0E7C7B;
        --z1:#0E7C7B;--z2:#C8783E;--z3:#3B5BA9;--z4:#8E4FA6;--mal:#CF3F2E}
  @media (prefers-color-scheme: dark){
    :root{--sil:#243149;--linea:#9FB0C9;--fondo:#182235;--tinta:#E7EDF6;--tenue:#97A6BD;--zona:#3DB7B1;
          --z1:#3DB7B1;--z2:#E39A5F;--z3:#7C9BE6;--z4:#B783CC;--mal:#F07563}
  }
  .fondo{fill:var(--fondo)}
  .sil-out path,.sil-out ellipse{fill:none;stroke:var(--linea);stroke-width:3;stroke-linejoin:round}
  .sil path,.sil ellipse{fill:var(--sil)}
  .seg path{stroke:var(--fondo);stroke-width:.9}
  .zone{fill:var(--zona)!important}
  .z1{fill:var(--z1)!important}.z2{fill:var(--z2)!important}.z3{fill:var(--z3)!important}.z4{fill:var(--z4)!important}
  .hide{fill:transparent!important;stroke:none!important}
  rect.zone{opacity:.88}
  .lm path,.lm ellipse,.lm rect,.lm circle{fill:none;stroke:var(--tenue);stroke-width:1;opacity:.8}
  .lm .lmdot{fill:var(--tenue)}
  .kp{fill:var(--linea)}
  .kplabel{font:700 8.5px system-ui,sans-serif;fill:var(--tinta);paint-order:stroke;stroke:var(--fondo);stroke-width:2.5px}
  .kp-on{fill:var(--mal);stroke:#fff;stroke-width:1.5}
  .kp-halo{fill:var(--mal);opacity:.22}
  .caption,.side{font:500 9px system-ui,sans-serif;fill:var(--tenue)}
  .pl-a,.pl-b,.pl-c,.pl-lat,.pl-post,.pl-med,.pl-side{fill:none;stroke-width:2.6}
  .pl-lat{stroke:var(--z1)}.pl-post{stroke:var(--z3)}.pl-med{stroke:var(--z2)}
  .pl-a,.pl-b,.pl-c{stroke:var(--tenue)}
  .pl-side{stroke:var(--tenue);stroke-width:1.2;stroke-dasharray:3 2}
  .pl-node{fill:var(--tinta)}
  .pl-lab{font:600 10.5px system-ui,sans-serif;fill:var(--tinta)}
  .pl-br{font-weight:700}.pl-sub{fill:var(--tenue);font-weight:500}
  .pl-small{font:500 8.5px system-ui,sans-serif;fill:var(--tenue)}
  .pl-col{font:600 9px system-ui,sans-serif;fill:var(--tenue)}
  .grid{stroke:var(--sil)}
  .bar-l{fill:var(--z1)}.bar-s{fill:var(--z3)}
</style><rect class="fondo" x="0" y="0" width="200" height="272"/>
    <text x="58" y="18" class="side" text-anchor="end">lateral</text><text x="142" y="18" class="side">medial</text>
    <g class="sil-out"><path d="M64,10 L114,10 L110,70 L106,128 L82,130 L72,70 Z"/><path d="M114,10 L136,10 L128,70 L118,126 L106,128 L110,70 Z"/><path d="M82,130 L92,134 L78,180 L70,222 L58,222 L66,180 Z"/><path d="M118,126 L134,176 L146,222 L134,222 L122,178 L108,130 Z"/><path d="M92,134 L108,130 L122,178 L134,222 L70,222 L78,180 Z"/><path d="M72,136 a8,8 0 1,0 16,0 a8,8 0 1,0 -16,0 Z"/><path d="M112,129 a8,8 0 1,0 16,0 a8,8 0 1,0 -16,0 Z"/><path d="M56,229 a6,9 0 1,0 12,0 a6,9 0 1,0 -12,0 Z"/><path d="M69,235 a7,11 0 1,0 14,0 a7,11 0 1,0 -14,0 Z"/><path d="M84.5,238 a7.5,12 0 1,0 15.0,0 a7.5,12 0 1,0 -15.0,0 Z"/><path d="M101,239 a8,13 0 1,0 16,0 a8,13 0 1,0 -16,0 Z"/><path d="M120,235 a12,17 0 1,0 24,0 a12,17 0 1,0 -24,0 Z"/></g><g class="sil seg"><path d="M64,10 L114,10 L110,70 L106,128 L82,130 L72,70 Z" class=""/><path d="M114,10 L136,10 L128,70 L118,126 L106,128 L110,70 Z" class="zone"/><path d="M82,130 L92,134 L78,180 L70,222 L58,222 L66,180 Z" class=""/><path d="M118,126 L134,176 L146,222 L134,222 L122,178 L108,130 Z" class="zone"/><path d="M92,134 L108,130 L122,178 L134,222 L70,222 L78,180 Z" class=""/><path d="M72,136 a8,8 0 1,0 16,0 a8,8 0 1,0 -16,0 Z" class=""/><path d="M112,129 a8,8 0 1,0 16,0 a8,8 0 1,0 -16,0 Z" class="zone"/><path d="M56,229 a6,9 0 1,0 12,0 a6,9 0 1,0 -12,0 Z" class=""/><path d="M69,235 a7,11 0 1,0 14,0 a7,11 0 1,0 -14,0 Z" class=""/><path d="M84.5,238 a7.5,12 0 1,0 15.0,0 a7.5,12 0 1,0 -15.0,0 Z" class=""/><path d="M101,239 a8,13 0 1,0 16,0 a8,13 0 1,0 -16,0 Z" class=""/><path d="M120,235 a12,17 0 1,0 24,0 a12,17 0 1,0 -24,0 Z" class=""/><path d="M113,221 L127,221 L120,236 Z" class="hide"/></g>
    <g class="lm"><ellipse cx="100" cy="14" rx="14" ry="6"/></g>
    
    <text x="100" y="268" class="caption" text-anchor="middle">Pierna y pie derechos, vista anterior</text>
  </svg>